<mxfile host="app.diagrams.net" modified="2023-12-19T06:39:33.580Z" agent="Mozilla/5.0 (Windows NT 10.0; Win64; x64) AppleWebKit/537.36 (KHTML, like Gecko) Chrome/120.0.0.0 Safari/537.36" etag="TkYU2j33i9obigaOS2DA" version="22.1.11" type="github">
  <diagram name="Page-1" id="dlWVztk4bCuJRGccYDZY">
    <mxGraphModel dx="663" dy="791" grid="1" gridSize="10" guides="1" tooltips="1" connect="1" arrows="1" fold="1" page="1" pageScale="1" pageWidth="850" pageHeight="1100" math="0" shadow="0">
      <root>
        <mxCell id="0" />
        <mxCell id="1" parent="0" />
        <mxCell id="VBfXmKQ4YQe5VFmiSKy1-2" value="" style="rounded=0;whiteSpace=wrap;html=1;direction=south;" vertex="1" parent="1">
          <mxGeometry x="210" y="25" width="420" height="570" as="geometry" />
        </mxCell>
        <mxCell id="VBfXmKQ4YQe5VFmiSKy1-3" value="" style="ellipse;whiteSpace=wrap;html=1;" vertex="1" parent="1">
          <mxGeometry x="225" y="25" width="210" height="45" as="geometry" />
        </mxCell>
        <mxCell id="VBfXmKQ4YQe5VFmiSKy1-4" value="" style="ellipse;whiteSpace=wrap;html=1;" vertex="1" parent="1">
          <mxGeometry x="225" y="80" width="210" height="40" as="geometry" />
        </mxCell>
        <mxCell id="VBfXmKQ4YQe5VFmiSKy1-5" value="" style="ellipse;whiteSpace=wrap;html=1;" vertex="1" parent="1">
          <mxGeometry x="215" y="190" width="195" height="60" as="geometry" />
        </mxCell>
        <mxCell id="VBfXmKQ4YQe5VFmiSKy1-6" value="" style="ellipse;whiteSpace=wrap;html=1;" vertex="1" parent="1">
          <mxGeometry x="220" y="270" width="210" height="60" as="geometry" />
        </mxCell>
        <mxCell id="VBfXmKQ4YQe5VFmiSKy1-7" value="" style="ellipse;whiteSpace=wrap;html=1;" vertex="1" parent="1">
          <mxGeometry x="222.5" y="350" width="210" height="60" as="geometry" />
        </mxCell>
        <mxCell id="VBfXmKQ4YQe5VFmiSKy1-8" value="" style="ellipse;whiteSpace=wrap;html=1;" vertex="1" parent="1">
          <mxGeometry x="220" y="430" width="210" height="70" as="geometry" />
        </mxCell>
        <mxCell id="VBfXmKQ4YQe5VFmiSKy1-9" value="" style="ellipse;whiteSpace=wrap;html=1;" vertex="1" parent="1">
          <mxGeometry x="225" y="515" width="205" height="70" as="geometry" />
        </mxCell>
        <mxCell id="VBfXmKQ4YQe5VFmiSKy1-10" value="Set time format 24/12 hour&lt;br&gt;" style="text;strokeColor=none;align=center;fillColor=none;html=1;verticalAlign=middle;whiteSpace=wrap;rounded=0;" vertex="1" parent="1">
          <mxGeometry x="255" y="40" width="150" height="30" as="geometry" />
        </mxCell>
        <mxCell id="VBfXmKQ4YQe5VFmiSKy1-12" value="Set Alarms" style="text;strokeColor=none;align=center;fillColor=none;html=1;verticalAlign=middle;whiteSpace=wrap;rounded=0;" vertex="1" parent="1">
          <mxGeometry x="237.5" y="85" width="150" height="30" as="geometry" />
        </mxCell>
        <mxCell id="VBfXmKQ4YQe5VFmiSKy1-13" value="alarm notice" style="text;strokeColor=none;align=center;fillColor=none;html=1;verticalAlign=middle;whiteSpace=wrap;rounded=0;" vertex="1" parent="1">
          <mxGeometry x="270" y="205" width="110" height="30" as="geometry" />
        </mxCell>
        <mxCell id="VBfXmKQ4YQe5VFmiSKy1-14" value="turning off alarm" style="text;strokeColor=none;align=center;fillColor=none;html=1;verticalAlign=middle;whiteSpace=wrap;rounded=0;" vertex="1" parent="1">
          <mxGeometry x="260" y="285" width="130" height="30" as="geometry" />
        </mxCell>
        <mxCell id="VBfXmKQ4YQe5VFmiSKy1-17" value="alarm snooze" style="text;strokeColor=none;align=center;fillColor=none;html=1;verticalAlign=middle;whiteSpace=wrap;rounded=0;" vertex="1" parent="1">
          <mxGeometry x="240" y="365" width="160" height="30" as="geometry" />
        </mxCell>
        <mxCell id="VBfXmKQ4YQe5VFmiSKy1-18" value="alarming sounding after snooze time achieved" style="text;strokeColor=none;align=center;fillColor=none;html=1;verticalAlign=middle;whiteSpace=wrap;rounded=0;" vertex="1" parent="1">
          <mxGeometry x="250" y="450" width="160" height="30" as="geometry" />
        </mxCell>
        <mxCell id="VBfXmKQ4YQe5VFmiSKy1-19" value="No response alarm off after 2 min" style="text;strokeColor=none;align=center;fillColor=none;html=1;verticalAlign=middle;whiteSpace=wrap;rounded=0;" vertex="1" parent="1">
          <mxGeometry x="255" y="530" width="150" height="40" as="geometry" />
        </mxCell>
        <mxCell id="VBfXmKQ4YQe5VFmiSKy1-20" value="User" style="shape=umlActor;verticalLabelPosition=bottom;verticalAlign=top;html=1;outlineConnect=0;" vertex="1" parent="1">
          <mxGeometry x="90" y="280" width="30" height="60" as="geometry" />
        </mxCell>
        <mxCell id="VBfXmKQ4YQe5VFmiSKy1-21" value="" style="ellipse;whiteSpace=wrap;html=1;" vertex="1" parent="1">
          <mxGeometry x="510" y="200" width="120" height="50" as="geometry" />
        </mxCell>
        <mxCell id="VBfXmKQ4YQe5VFmiSKy1-22" value="Alarm sound off&lt;br&gt;" style="text;strokeColor=none;align=center;fillColor=none;html=1;verticalAlign=middle;whiteSpace=wrap;rounded=0;" vertex="1" parent="1">
          <mxGeometry x="525" y="205" width="90" height="30" as="geometry" />
        </mxCell>
        <mxCell id="VBfXmKQ4YQe5VFmiSKy1-23" value="" style="endArrow=classic;html=1;rounded=0;entryX=0.038;entryY=0.65;entryDx=0;entryDy=0;entryPerimeter=0;" edge="1" parent="1" target="VBfXmKQ4YQe5VFmiSKy1-3">
          <mxGeometry width="50" height="50" relative="1" as="geometry">
            <mxPoint x="120" y="300" as="sourcePoint" />
            <mxPoint x="170" y="250" as="targetPoint" />
          </mxGeometry>
        </mxCell>
        <mxCell id="VBfXmKQ4YQe5VFmiSKy1-25" value="" style="endArrow=classic;html=1;rounded=0;entryX=0.048;entryY=0.667;entryDx=0;entryDy=0;entryPerimeter=0;" edge="1" parent="1" target="VBfXmKQ4YQe5VFmiSKy1-4">
          <mxGeometry width="50" height="50" relative="1" as="geometry">
            <mxPoint x="120" y="300" as="sourcePoint" />
            <mxPoint x="170" y="250" as="targetPoint" />
          </mxGeometry>
        </mxCell>
        <mxCell id="VBfXmKQ4YQe5VFmiSKy1-26" value="" style="endArrow=classic;html=1;rounded=0;" edge="1" parent="1" target="VBfXmKQ4YQe5VFmiSKy1-6">
          <mxGeometry width="50" height="50" relative="1" as="geometry">
            <mxPoint x="120" y="300" as="sourcePoint" />
            <mxPoint x="170" y="250" as="targetPoint" />
          </mxGeometry>
        </mxCell>
        <mxCell id="VBfXmKQ4YQe5VFmiSKy1-28" value="" style="endArrow=classic;html=1;rounded=0;entryX=0;entryY=0.5;entryDx=0;entryDy=0;" edge="1" parent="1" target="VBfXmKQ4YQe5VFmiSKy1-7">
          <mxGeometry width="50" height="50" relative="1" as="geometry">
            <mxPoint x="120" y="300" as="sourcePoint" />
            <mxPoint x="170" y="250" as="targetPoint" />
          </mxGeometry>
        </mxCell>
        <mxCell id="VBfXmKQ4YQe5VFmiSKy1-29" value="" style="endArrow=classic;html=1;rounded=0;entryX=0.024;entryY=0.371;entryDx=0;entryDy=0;entryPerimeter=0;" edge="1" parent="1" target="VBfXmKQ4YQe5VFmiSKy1-9">
          <mxGeometry width="50" height="50" relative="1" as="geometry">
            <mxPoint x="120" y="300" as="sourcePoint" />
            <mxPoint x="170" y="250" as="targetPoint" />
          </mxGeometry>
        </mxCell>
        <mxCell id="VBfXmKQ4YQe5VFmiSKy1-38" value="" style="endArrow=classic;html=1;rounded=0;dashed=1;" edge="1" parent="1">
          <mxGeometry relative="1" as="geometry">
            <mxPoint x="410" y="225" as="sourcePoint" />
            <mxPoint x="510" y="225" as="targetPoint" />
          </mxGeometry>
        </mxCell>
        <mxCell id="VBfXmKQ4YQe5VFmiSKy1-39" value="&amp;lt;&amp;lt;includes&amp;gt;&amp;gt;" style="edgeLabel;resizable=0;html=1;align=center;verticalAlign=middle;" connectable="0" vertex="1" parent="VBfXmKQ4YQe5VFmiSKy1-38">
          <mxGeometry relative="1" as="geometry">
            <mxPoint as="offset" />
          </mxGeometry>
        </mxCell>
        <mxCell id="VBfXmKQ4YQe5VFmiSKy1-50" value="" style="endArrow=classic;html=1;rounded=0;dashed=1;exitX=0.428;exitY=1.139;exitDx=0;exitDy=0;exitPerimeter=0;entryX=0.5;entryY=0;entryDx=0;entryDy=0;" edge="1" parent="1" source="VBfXmKQ4YQe5VFmiSKy1-4" target="VBfXmKQ4YQe5VFmiSKy1-5">
          <mxGeometry relative="1" as="geometry">
            <mxPoint x="490.87999999999994" y="115" as="sourcePoint" />
            <mxPoint x="490.00000000000006" y="186.26" as="targetPoint" />
          </mxGeometry>
        </mxCell>
        <mxCell id="VBfXmKQ4YQe5VFmiSKy1-51" value="include" style="edgeLabel;resizable=0;html=1;align=center;verticalAlign=middle;rotation=90;" connectable="0" vertex="1" parent="VBfXmKQ4YQe5VFmiSKy1-50">
          <mxGeometry relative="1" as="geometry">
            <mxPoint y="-4" as="offset" />
          </mxGeometry>
        </mxCell>
      </root>
    </mxGraphModel>
  </diagram>
</mxfile>
